<svg width="20" height="21" viewBox="0 0 20 21" fill="none" xmlns="http://www.w3.org/2000/svg">
<path d="M14.9998 3.93264C13.6737 2.60656 11.8751 1.86157 9.99978 1.86157C8.12441 1.86157 6.32586 2.60656 4.99978 3.93264C3.6737 5.25872 2.92871 7.05728 2.92871 8.93264C2.92871 10.808 3.6737 12.6066 4.99978 13.9326L9.39145 18.3326C9.46891 18.4107 9.56108 18.4727 9.66263 18.515C9.76418 18.5574 9.8731 18.5791 9.98311 18.5791C10.0931 18.5791 10.202 18.5574 10.3036 18.515C10.4051 18.4727 10.4973 18.4107 10.5748 18.3326L14.9998 13.891C16.3203 12.5704 17.0622 10.7794 17.0622 8.91181C17.0622 7.04426 16.3203 5.25321 14.9998 3.93264ZM13.8081 12.6993L9.99978 16.5243L6.19145 12.6993C5.43907 11.9462 4.92684 10.987 4.71952 9.94288C4.51221 8.89875 4.6191 7.8166 5.0267 6.83321C5.4343 5.84982 6.12429 5.00935 7.00947 4.41804C7.89465 3.82673 8.93527 3.51112 9.99978 3.51112C11.0643 3.51112 12.1049 3.82673 12.9901 4.41804C13.8753 5.00935 14.5653 5.84982 14.9729 6.83321C15.3805 7.8166 15.4874 8.89875 15.28 9.94288C15.0727 10.987 14.5605 11.9462 13.8081 12.6993ZM7.49978 6.37431C6.82704 7.04912 6.44927 7.96311 6.44927 8.91597C6.44927 9.86883 6.82704 10.7828 7.49978 11.4576C7.99958 11.9583 8.6361 12.3002 9.32949 12.4405C10.0229 12.5807 10.7422 12.5131 11.3973 12.2461C12.0524 11.9791 12.6141 11.5245 13.0118 10.9395C13.4096 10.3545 13.6257 9.66503 13.6331 8.95764C13.6369 8.48531 13.5459 8.01702 13.3655 7.58046C13.1852 7.1439 12.9191 6.74794 12.5831 6.41597C12.2528 6.07812 11.859 5.80892 11.4243 5.62386C10.9896 5.4388 10.5226 5.34154 10.0501 5.33766C9.57766 5.33379 9.10911 5.42339 8.67142 5.6013C8.23373 5.77921 7.83555 6.04192 7.49978 6.37431ZM11.4081 10.2743C11.0923 10.5949 10.675 10.7959 10.2274 10.8429C9.77982 10.8898 9.32983 10.7798 8.95437 10.5317C8.5789 10.2837 8.30128 9.91284 8.16895 9.48271C8.03663 9.05258 8.05782 8.58984 8.22891 8.1736C8.4 7.75737 8.71036 7.41349 9.10693 7.20075C9.5035 6.98802 9.96166 6.91965 10.4031 7.00732C10.8445 7.09499 11.2417 7.33327 11.5269 7.68142C11.812 8.02956 11.9674 8.46595 11.9664 8.91597C11.9543 9.43037 11.7385 9.91891 11.3664 10.2743H11.4081Z" fill="#E84C3D"/>
</svg>
