<svg width="20" height="21" viewBox="0 0 20 21" fill="none" xmlns="http://www.w3.org/2000/svg">
<path d="M9.16634 1.86597C7.51817 1.86597 5.907 2.35471 4.53659 3.27039C3.16618 4.18607 2.09808 5.48755 1.46735 7.01027C0.836619 8.53299 0.671591 10.2085 0.993134 11.8251C1.31468 13.4416 2.10835 14.9264 3.27379 16.0919C4.43923 17.2573 5.92408 18.051 7.54059 18.3725C9.1571 18.6941 10.8327 18.529 12.3554 17.8983C13.8781 17.2676 15.1796 16.1995 16.0953 14.8291C17.0109 13.4586 17.4997 11.8475 17.4997 10.1993C17.4997 9.10495 17.2841 8.02132 16.8653 7.01027C16.4466 5.99922 15.8327 5.08057 15.0589 4.30674C14.2851 3.53292 13.3664 2.91909 12.3554 2.5003C11.3443 2.08151 10.2607 1.86597 9.16634 1.86597V1.86597ZM9.16634 16.866C7.8478 16.866 6.55887 16.475 5.46254 15.7424C4.36622 15.0099 3.51173 13.9687 3.00715 12.7505C2.50256 11.5323 2.37054 10.1919 2.62778 8.8987C2.88501 7.60549 3.51995 6.41761 4.4523 5.48526C5.38465 4.55291 6.57254 3.91797 7.86574 3.66073C9.15895 3.4035 10.4994 3.53552 11.7176 4.0401C12.9357 4.54469 13.9769 5.39917 14.7095 6.4955C15.442 7.59183 15.833 8.88076 15.833 10.1993C15.833 11.9674 15.1306 13.6631 13.8804 14.9133C12.6301 16.1636 10.9345 16.866 9.16634 16.866V16.866ZM9.99968 10.141V6.03263C9.99968 5.81162 9.91188 5.59966 9.7556 5.44338C9.59932 5.2871 9.38736 5.1993 9.16634 5.1993C8.94533 5.1993 8.73337 5.2871 8.57709 5.44338C8.42081 5.59966 8.33301 5.81162 8.33301 6.03263V10.1993C8.33301 10.1993 8.33301 10.2576 8.33301 10.291C8.31251 10.4604 8.3445 10.632 8.42468 10.7826L9.67468 12.9493C9.78518 13.1416 9.96755 13.2821 10.1817 13.3399C10.3958 13.3977 10.6241 13.3681 10.8163 13.2576C11.0086 13.1471 11.1491 12.9648 11.207 12.7507C11.2648 12.5366 11.2352 12.3082 11.1247 12.116L9.99968 10.141Z" fill="#E84C3D"/>
</svg>
