<svg width="20" height="21" viewBox="0 0 20 21" fill="none" xmlns="http://www.w3.org/2000/svg">
<path d="M16.1998 11.0325C16.0165 11.0325 15.8248 10.9742 15.6415 10.9325C15.2702 10.8507 14.9054 10.7421 14.5498 10.6075C14.1632 10.4669 13.7383 10.4742 13.3568 10.628C12.9752 10.7819 12.6641 11.0714 12.4832 11.4409L12.2998 11.8159C11.4882 11.3643 10.7423 10.8035 10.0832 10.1492C9.42881 9.49004 8.86803 8.74419 8.41651 7.93252L8.76651 7.69919C9.13598 7.51829 9.42549 7.20713 9.57933 6.8256C9.73318 6.44407 9.74048 6.01912 9.59984 5.63252C9.46753 5.27621 9.35895 4.91152 9.27484 4.54086C9.23317 4.35752 9.19984 4.16586 9.17484 3.97419C9.07364 3.38721 8.76619 2.85564 8.30786 2.47522C7.84952 2.0948 7.27042 1.89053 6.67484 1.89919H4.17484C3.8157 1.89582 3.46005 1.96987 3.1321 2.1163C2.80415 2.26273 2.5116 2.4781 2.27437 2.74776C2.03713 3.01741 1.86079 3.33502 1.75733 3.67895C1.65387 4.02289 1.62574 4.38507 1.67484 4.74086C2.11879 8.23201 3.7132 11.4758 6.20622 13.9597C8.69924 16.4437 11.9488 18.0263 15.4415 18.4575H15.7582C16.3727 18.4584 16.966 18.233 17.4248 17.8242C17.6885 17.5884 17.8991 17.2993 18.0427 16.9761C18.1864 16.6529 18.2598 16.3029 18.2582 15.9492V13.4492C18.248 12.8703 18.0372 12.313 17.6618 11.8722C17.2864 11.4315 16.7697 11.1347 16.1998 11.0325V11.0325ZM16.6165 16.0325C16.6164 16.1508 16.591 16.2678 16.5422 16.3755C16.4933 16.4833 16.4221 16.5794 16.3332 16.6575C16.2403 16.7384 16.1315 16.7987 16.0137 16.8346C15.896 16.8705 15.772 16.8812 15.6498 16.8659C12.5289 16.4657 9.63004 15.0379 7.41044 12.8078C5.19084 10.5776 3.77685 7.67197 3.39151 4.54919C3.37824 4.42712 3.38987 4.30363 3.42567 4.18618C3.46148 4.06873 3.52073 3.95976 3.59984 3.86586C3.67793 3.77697 3.77406 3.70572 3.88182 3.65687C3.98959 3.60802 4.10652 3.58267 4.22484 3.58252H6.72484C6.91863 3.57821 7.10786 3.64159 7.25996 3.76175C7.41206 3.88191 7.51751 4.05133 7.55817 4.24086C7.59151 4.46863 7.63317 4.69363 7.68317 4.91586C7.77944 5.35514 7.90756 5.78684 8.06651 6.20752L6.89984 6.74919C6.80009 6.79496 6.71036 6.85998 6.6358 6.94052C6.56125 7.02106 6.50334 7.11554 6.4654 7.21852C6.42746 7.3215 6.41023 7.43097 6.41471 7.54063C6.41919 7.65028 6.44529 7.75798 6.49151 7.85752C7.69084 10.4265 9.75588 12.4915 12.3248 13.6909C12.5277 13.7742 12.7553 13.7742 12.9582 13.6909C13.0621 13.6537 13.1576 13.5962 13.2391 13.5218C13.3207 13.4475 13.3866 13.3576 13.4332 13.2575L13.9498 12.0909C14.3806 12.2449 14.8203 12.3729 15.2665 12.4742C15.4887 12.5242 15.7137 12.5659 15.9415 12.5992C16.131 12.6398 16.3005 12.7453 16.4206 12.8974C16.5408 13.0495 16.6042 13.2387 16.5998 13.4325L16.6165 16.0325Z" fill="#E84C3D"/>
</svg>
